#!OML:ASF X:\für Bonn\!DataBase\2005_08_10_Bjorn_Final\c3d\bjorn.ASF
:FULLY-SPECIFIED
:DEGREES
92
root -1.93178 18.4294 16.0048 -548.555 20.6969 -536.335
lowerback 1.85059 2.52584 3.66108
upperback 13.4028 5.23561 -1.62688
thorax 14.0898 3.8147 -3.0961
lowerneck -7.28091 1.12581 7.51187
upperneck 10.7794 1.14012 -3.12531
head 4.4842 0.742273 -2.11504
rclavicle -6.83819e-014 3.97569e-014
rhumerus 20.9617 24.269 -89.2018
rradius 82.3727
rwrist 22.2128
rhand -43.5541 26.7676
rfingers 7.12502
rthumb -16.3919 -2.5598
lclavicle -6.83819e-014 3.97569e-014
lhumerus 14.8367 -44.2777 78.3227
lradius 61.3789
lwrist 32.9847
lhand -30.763 4.16383
lfingers 7.12502
lthumb -4.05425 34.105
rfemur 360.844 -8.27643 -344.126
rtibia 36.1021
rfoot -25.214 11.8238
rtoes -12.9665
lfemur -10.6267 -4.07697 -7.37397
ltibia 40.1443
lfoot -15.569 -0.590883
ltoes -14.7897
93
root -1.90223 18.4224 15.9946 -548.766 20.4997 -536.333
lowerback 1.32046 2.43251 3.7894
upperback 13.2046 4.97942 -1.4867
thorax 14.1467 3.65482 -3.021
lowerneck -7.37958 1.09969 7.39728
upperneck 11.6361 1.15155 -3.10464
head 4.76321 0.771323 -2.09123
rclavicle 6.36111e-015 -1.59028e-014
rhumerus 22.1308 24.2781 -88.5595
rradius 82.5258
rwrist 22.3577
rhand -43.6797 27.0526
rfingers 7.12502
rthumb -16.5128 -2.26478
lclavicle 6.36111e-015 -1.59028e-014
lhumerus 15.5154 -43.3354 78.6908
lradius 61.985
lwrist 33.0738
lhand -30.9517 3.58034
lfingers 7.12502
lthumb -4.23651 33.518
rfemur 361.197 -8.3719 -344.102
rtibia 36.0682
rfoot -25.3286 11.7371
rtoes -13.18
lfemur -10.3832 -4.21953 -7.33642
ltibia 40.12
lfoot -15.5963 -0.904301
ltoes -14.626
94
root -1.87186 18.4169 15.9843 -548.94 20.2618 -536.342
lowerback 0.744482 2.33951 3.89704
upperback 13.028 4.73349 -1.37114
thorax 14.2632 3.50391 -2.95823
lowerneck -7.57017 1.07507 7.31533
upperneck 12.4921 1.15608 -3.08386
head 5.05868 0.797936 -2.07294
rclavicle 3.20043e-014 -6.36111e-015
rhumerus 23.3568 24.233 -87.9511
rradius 82.6281
rwrist 22.5167
rhand -43.9307 27.4585
rfingers 7.12502
rthumb -16.7545 -1.83858
lclavicle 3.20043e-014 -6.36111e-015
lhumerus 16.2439 -42.3829 79.0482
lradius 62.6287
lwrist 33.1743
lhand -30.9454 3.00031
lfingers 7.12502
lthumb -4.23042 32.9381
rfemur 361.512 -8.41292 -344.053
rtibia 36.0318
rfoot -25.4751 11.5579
rtoes -13.4964
lfemur -10.1916 -4.37375 -7.31161
ltibia 40.0961
lfoot -15.6019 -1.17934
ltoes -14.4575
95
root -1.84129 18.4123 15.974 -549.116 19.9952 -536.387
lowerback 0.188409 2.23371 3.93816
upperback 12.851 4.47775 -1.26375
thorax 14.3617 3.34263 -2.87335
lowerneck -7.75779 1.0608 7.23271
upperneck 13.307 1.17805 -3.07198
head 5.3433 0.832078 -2.05605
rclavicle -7.2954e-014 6.20208e-014
rhumerus 24.5892 24.1813 -87.3694
rradius 82.7174
rwrist 22.7155
rhand -44.1484 27.8305
rfingers 7.12502
rthumb -16.9641 -1.44869
lclavicle -7.2954e-014 6.20208e-014
lhumerus 16.9572 -41.3532 79.4464
lradius 63.31
lwrist 33.1296
lhand -30.6889 2.65435
lfingers 7.12502
lthumb -3.98271 32.5969
rfemur 361.817 -8.49582 -344.053
rtibia 35.9958
rfoot -25.5949 11.376
rtoes -13.8388
lfemur -10.0243 -4.50352 -7.31918
ltibia 40.0702
lfoot -15.6182 -1.474
ltoes -14.4488
96
root -1.81145 18.4075 15.9621 -549.263 19.7057 -536.416
lowerback -0.410221 2.12016 3.98888
upperback 12.7019 4.21777 -1.16612
thorax 14.5257 3.18599 -2.80356
lowerneck -7.93517 1.03827 7.1517
upperneck 13.9982 1.18681 -3.07439
head 5.58838 0.855044 -2.04449
rclavicle -1.98785e-015 -4.21423e-014
rhumerus 25.8766 24.0834 -86.8381
rradius 82.7469
rwrist 23.0003
rhand -44.4235 28.1718
rfingers 7.12502
rthumb -17.2288 -1.08444
lclavicle -1.98785e-015 -4.21423e-014
lhumerus 17.7295 -40.2732 79.8611
lradius 64.0149
lwrist 32.9783
lhand -30.278 2.38253
lfingers 7.12502
lthumb -3.58592 32.3321
rfemur 362.106 -8.60515 -344.044
rtibia 35.9525
rfoot -25.7322 11.2214
rtoes -14.0821
lfemur -9.88385 -4.66157 -7.31852
ltibia 40.0477
lfoot -15.6141 -1.69409
ltoes -14.4595
97
root -1.78149 18.4041 15.9502 -549.368 19.4011 -536.444
lowerback -1.03321 2.02405 4.0479
upperback 12.5408 3.98279 -1.10131
thorax 14.6993 3.0452 -2.77382
lowerneck -7.9455 1.01785 7.1218
upperneck 14.4914 1.19338 -3.03346
head 5.74411 0.879628 -2.02738
rclavicle 3.18055e-015 -8.74653e-015
rhumerus 27.1553 23.9043 -86.3219
rradius 82.7349
rwrist 23.3449
rhand -44.7624 28.4823
rfingers 7.12502
rthumb -17.5551 -0.7451
lclavicle 3.18055e-015 -8.74653e-015
lhumerus 18.5224 -39.2541 80.2329
lradius 64.7907
lwrist 32.7974
lhand -29.8255 2.02549
lfingers 7.12502
lthumb -3.14894 31.982
rfemur 362.351 -8.71267 -344.025
rtibia 35.9143
rfoot -25.8446 11.0586
rtoes -14.2471
lfemur -9.80351 -4.75761 -7.30487
ltibia 40.0247
lfoot -15.5982 -1.88378
ltoes -14.6313
98
root -1.75107 18.4006 15.9382 -549.469 19.1009 -536.47
lowerback -1.63186 1.95451 4.11577
upperback 12.3703 3.79019 -1.07327
thorax 14.8562 2.92985 -2.78838
lowerneck -7.87207 0.96971 7.21186
upperneck 14.8958 1.1567 -3.03389
head 5.85673 0.886076 -2.0461
rclavicle 3.37934e-014 -7.15625e-015
rhumerus 28.391 23.6107 -85.9312
rradius 82.6698
rwrist 23.7577
rhand -45.0958 28.7603
rfingers 7.12502
rthumb -17.8758 -0.438131
lclavicle 3.37934e-014 -7.15625e-015
lhumerus 19.3265 -38.3403 80.564
lradius 65.6137
lwrist 32.6797
lhand -29.3166 1.6075
lfingers 7.12502
lthumb -2.65743 31.5707
rfemur 362.592 -8.82074 -344.003
rtibia 35.8695
rfoot -25.9647 10.9235
rtoes -14.4422
lfemur -9.72101 -4.82618 -7.27981
ltibia 40.0051
lfoot -15.5766 -2.04408
ltoes -14.9408
99
root -1.72142 18.3962 15.9252 -549.557 18.7928 -536.499
lowerback -2.23004 1.88513 4.16623
upperback 12.1895 3.59811 -1.04844
thorax 14.9997 2.81266 -2.80022
lowerneck -7.65098 0.923291 7.25799
upperneck 15.1728 1.13179 -2.99466
head 5.90429 0.897729 -2.04392
rclavicle 1.70955e-014 -5.56597e-015
rhumerus 29.5734 23.3114 -85.5205
rradius 82.5969
rwrist 24.176
rhand -45.5026 29.0103
rfingers 7.12502
rthumb -18.2673 -0.15191
lclavicle 1.70955e-014 -5.56597e-015
lhumerus 20.0595 -37.4381 80.9663
lradius 66.4704
lwrist 32.5563
lhand -28.7176 1.26396
lfingers 7.12502
lthumb -2.079 31.2336
rfemur 362.817 -8.94939 -343.991
rtibia 35.8248
rfoot -26.0842 10.7654
rtoes -14.6462
lfemur -9.66197 -4.88758 -7.25472
ltibia 39.9883
lfoot -15.5569 -2.21941
ltoes -14.9003
